PathFileType	4	(X/Y/Z)	5_coords_data.trc
DataRate	CameraRate	NumFrames	NumMarkers	Units	OrigDataRate	OrigDataStartFrame	OrigNumFrames
30.0	30.0	5	21	m	30.0	10	68
Frame#	Time	THUMB_TIP	THUMB_IP	THUMB_MCP	THUMB_CMC	INDEX_TIP	INDEX_DIP	INDEX_PIP	INDEX_MCP	MIDDLE_TIP	MIDDLE_DIP	MIDDLE_PIP	MIDDLE_MCP	RING_TIP	RING_DIP	RING_PIP	RING_MCP	PINKY_TIP	PINKY_DIP	PINKY_PIP	PINKY_MCP	WRIST
X1	Y1	Z1	X2	Y2	Z2	X3	Y3	Z3	X4	Y4	Z4	X5	Y5	Z5	X6	Y6	Z6	X7	Y7	Z7	X8	Y8	Z8	X9	Y9	Z9	X10	Y10	Z10	X11	Y11	Z11	X12	Y12	Z12	X13	Y13	Z13	X14	Y14	Z14	X15	Y15	Z15	X16	Y16	Z16	X17	Y17	Z17	X18	Y18	Z18	X19	Y19	Z19	X20	Y20	Z20	X21	Y21	Z21
8	0.2999999999999987	0.5411673203212083	-0.014289239149537392	-0.11892492354219772	0.5193665954258683	-0.017118784524540853	-0.12561237948661358	0.48961354057243445	-0.013188920334643917	-0.11735817484064531	0.4714157059726004	-0.02660462010275877	-0.0789036846527767	0.5684787051686915	0.04454262880296844	-0.1577724666425643	0.5538315842501078	0.04145640636844772	-0.14757751299475164	0.5352418858512655	0.039138951654904774	-0.13081259873637374	0.5047772406330591	0.029910208669635008	-0.10252175589561263	0.5057845109708938	-0.02947185015285514	-0.10590826247616023	0.5172741075712856	-0.016456830366952224	-0.11106562904572112	0.5319166620911341	0.007587094552275797	-0.11860849465580514	0.5150682383537731	0.030255032472588428	-0.08398995729491737	0.521317028835451	-0.03024141038511463	-0.1099546903641761	0.5343966309689511	-0.017889559841321123	-0.10879030375607232	0.5500720134951665	0.0011622261369664821	-0.10540034613180288	0.5285733854712619	0.015873779224164664	-0.07447947885980777	0.5976234481172303	0.025479326254675416	-0.08209591806208089	0.5824884288414292	0.018170695631017364	-0.07885321703854342	0.5634771396565991	0.009961356898171347	-0.07539060818102528	0.5317212772232358	-0.006594523339902181	-0.07110674524485705	0.462283081001861	-0.023011742144276925	-0.051989820119430985
9	0.33333333333333187	0.5411398918111212	-0.014311244260735934	-0.1190385644249958	0.5193330052037629	-0.017144352664793305	-0.12570438719976873	0.4896061111878366	-0.01319056175979716	-0.11736776260431939	0.47137383351153517	-0.02658144605248791	-0.07892093869656319	0.5683878493047715	0.04449955390986038	-0.15783536591109337	0.5537482654198125	0.041429046263158464	-0.14762485336436987	0.5351690418581232	0.03913420203310103	-0.13084522360669817	0.5047003885799152	0.029950590069340755	-0.10254401280730968	0.5057490181657959	-0.029514052808919944	-0.10599678363479562	0.5172487154868245	-0.016505894204410176	-0.11114894543783	0.5318650667235032	0.007558091597479444	-0.11867864754697716	0.5150299786613137	0.030246552048204922	-0.08406706721157231	0.521251041487524	-0.030250764162351174	-0.11002590382377897	0.5343573800824973	-0.01792559095776136	-0.1088796080021096	0.5500501186747951	0.0011136575288029915	-0.10549952641423915	0.5285302406678585	0.015869064514777875	-0.07461435765567787	0.5976760944041211	0.02530414345896881	-0.08220205089105204	0.582528136377028	0.018026767467812843	-0.07894948785664796	0.56351194249121	0.009832304389003954	-0.07547858538797891	0.5317102871397563	-0.006631046560110265	-0.07117785946859512	0.4622830810018609	-0.023011742144276925	-0.051989820119430985
10	0.3666666666666651	0.5411267928228327	-0.014340116561588512	-0.1191701453948184	0.5193033835288687	-0.017158176154823623	-0.12578810179518118	0.4896029499482645	-0.013173565789965869	-0.11737221649627305	0.4713394303168591	-0.02655309333413114	-0.07893626856509545	0.5683219098997676	0.04447756580368789	-0.15787763692940593	0.5536872635986402	0.04142072312297351	-0.1476559521139627	0.5351181134781424	0.03911944278226287	-0.13086605617634947	0.5046525942849072	0.029988396632013248	-0.10254447023049162	0.5057215712543275	-0.029541022553669305	-0.10606712031562682	0.5172151393041198	-0.016522307169766215	-0.11120627814913606	0.5318054513065645	0.007562651311121882	-0.11871940803256117	0.5149909671146824	0.03026224470179628	-0.0841051118204611	0.5211737247968233	-0.030255058501697296	-0.1100672202157646	0.534317198356885	-0.0179666421071214	-0.10895190622881928	0.5500238116841705	0.0010621311431590064	-0.10557728545359768	0.5284956878018781	0.015865751377257653	-0.0747209482750979	0.5977439585275187	0.025131544461561073	-0.08229836526613549	0.5825817397126883	0.01788817848397728	-0.07903634596423309	0.5635647323884161	0.009697337271029838	-0.07556135364008987	0.5316982649720413	-0.006629446060502642	-0.0712199424125824	0.4622830810018609	-0.023011742144276925	-0.051989820119430985
11	0.39999999999999825	0.5410874505698929	-0.014371075197859962	-0.119293327245975	0.5192500643302933	-0.017169358831609305	-0.1258734618135684	0.48957622342770624	-0.01314989900578778	-0.11738069378444155	0.4713042530794084	-0.026534442552578974	-0.07895050911620222	0.5682828890833793	0.044477565764139526	-0.15790453789199585	0.5536532344598292	0.04142662673849462	-0.1476739476520616	0.5350846997875436	0.03913419286603481	-0.13088216096735994	0.5046386827967271	0.030004592518910966	-0.10253914523337854	0.5056423456598941	-0.02956536608837268	-0.10608587950914838	0.517164460526827	-0.016576341993028376	-0.11123623115187797	0.5317613230894145	0.00751075228166731	-0.11872976454613562	0.5149513854709121	0.030272025939467317	-0.0841537853157972	0.5211065982060433	-0.03025543657037244	-0.11009373634462033	0.534289593782586	-0.018006384921630758	-0.10901236622513519	0.5500010409087126	0.001018228526166065	-0.10563679347894245	0.5284709500718773	0.015861152857586047	-0.07480071688269951	0.5978208483995098	0.02495278215732266	-0.08238326267224932	0.5826453102712128	0.0177439809202371	-0.0791066444093454	0.5636146728261989	0.009592277672238803	-0.0756142825161546	0.5316948589102637	-0.006615910891981325	-0.0712207015121486	0.4622830810018608	-0.023011742144276925	-0.051989820119430985
12	0.43333333333333146	0.5410408409451102	-0.014438342883021149	-0.11939545003462268	0.5191956896742113	-0.017227162966804266	-0.12595379193573128	0.48954300363935854	-0.013172404249282677	-0.11740410523614256	0.4712726807927775	-0.026525541960532584	-0.07896221381095264	0.5682870188777206	0.044451467892497876	-0.15793600508773747	0.5536599544671185	0.04140721125298097	-0.14769972215686583	0.53508939519627	0.039132331432898626	-0.13090778709350623	0.5046486856088573	0.029966396862460387	-0.10257079824032606	0.505600317131326	-0.029632834402927744	-0.1061422506816383	0.5171256477002006	-0.01664703047678806	-0.11129352738455575	0.531732926286942	0.007432884776589099	-0.11878983605479451	0.5149581989917178	0.030226451851134373	-0.08421803041509623	0.5210618903164362	-0.03027558949011211	-0.1101224619070412	0.5342833606995177	-0.018065286999481733	-0.10907306493896538	0.5500061116659846	0.0009489381959290055	-0.1056915976147596	0.5284908659799052	0.01579904839572155	-0.07484862006521581	0.5979051983573149	0.02475810400407008	-0.0824472841951267	0.5827151545249971	0.017585854449475247	-0.07915769384086108	0.5636728556159176	0.00947031182137359	-0.07564474079410222	0.5316937320229249	-0.006612516194449691	-0.0712218742759323	0.4622830810018609	-0.023011742144276925	-0.051989820119430985
